<mxfile host="app.diagrams.net" agent="Mozilla/5.0 (Windows NT 10.0; Win64; x64) AppleWebKit/537.36 (KHTML, like Gecko) Chrome/130.0.0.0 Safari/537.36" version="24.8.6">
  <diagram id="C5RBs43oDa-KdzZeNtuy" name="Page-1">
    <mxGraphModel dx="1050" dy="522" grid="1" gridSize="10" guides="1" tooltips="1" connect="1" arrows="1" fold="1" page="1" pageScale="1" pageWidth="827" pageHeight="1169" math="0" shadow="0">
      <root>
        <mxCell id="WIyWlLk6GJQsqaUBKTNV-0" />
        <mxCell id="WIyWlLk6GJQsqaUBKTNV-1" parent="WIyWlLk6GJQsqaUBKTNV-0" />
        <mxCell id="jEnM1dzhKXRd6MNSODCM-0" value="" style="edgeStyle=orthogonalEdgeStyle;rounded=0;orthogonalLoop=1;jettySize=auto;html=1;" edge="1" parent="WIyWlLk6GJQsqaUBKTNV-1" source="jEnM1dzhKXRd6MNSODCM-1" target="jEnM1dzhKXRd6MNSODCM-3">
          <mxGeometry relative="1" as="geometry" />
        </mxCell>
        <mxCell id="jEnM1dzhKXRd6MNSODCM-1" value="bắt đầu" style="strokeWidth=2;html=1;shape=mxgraph.flowchart.start_1;whiteSpace=wrap;" vertex="1" parent="WIyWlLk6GJQsqaUBKTNV-1">
          <mxGeometry x="370" y="90" width="100" height="60" as="geometry" />
        </mxCell>
        <mxCell id="jEnM1dzhKXRd6MNSODCM-2" value="" style="edgeStyle=orthogonalEdgeStyle;rounded=0;orthogonalLoop=1;jettySize=auto;html=1;" edge="1" parent="WIyWlLk6GJQsqaUBKTNV-1" source="jEnM1dzhKXRd6MNSODCM-3" target="jEnM1dzhKXRd6MNSODCM-8">
          <mxGeometry relative="1" as="geometry" />
        </mxCell>
        <mxCell id="jEnM1dzhKXRd6MNSODCM-3" value="n" style="shape=parallelogram;perimeter=parallelogramPerimeter;whiteSpace=wrap;html=1;fixedSize=1;strokeWidth=2;" vertex="1" parent="WIyWlLk6GJQsqaUBKTNV-1">
          <mxGeometry x="360" y="190" width="120" height="60" as="geometry" />
        </mxCell>
        <mxCell id="jEnM1dzhKXRd6MNSODCM-4" value="" style="edgeStyle=orthogonalEdgeStyle;rounded=0;orthogonalLoop=1;jettySize=auto;html=1;" edge="1" parent="WIyWlLk6GJQsqaUBKTNV-1" source="jEnM1dzhKXRd6MNSODCM-8" target="jEnM1dzhKXRd6MNSODCM-10">
          <mxGeometry relative="1" as="geometry" />
        </mxCell>
        <mxCell id="jEnM1dzhKXRd6MNSODCM-5" value="sai" style="edgeLabel;html=1;align=center;verticalAlign=middle;resizable=0;points=[];" vertex="1" connectable="0" parent="jEnM1dzhKXRd6MNSODCM-4">
          <mxGeometry x="-0.2667" y="-2" relative="1" as="geometry">
            <mxPoint as="offset" />
          </mxGeometry>
        </mxCell>
        <mxCell id="jEnM1dzhKXRd6MNSODCM-6" value="" style="edgeStyle=orthogonalEdgeStyle;rounded=0;orthogonalLoop=1;jettySize=auto;html=1;" edge="1" parent="WIyWlLk6GJQsqaUBKTNV-1" source="jEnM1dzhKXRd6MNSODCM-8" target="jEnM1dzhKXRd6MNSODCM-12">
          <mxGeometry relative="1" as="geometry" />
        </mxCell>
        <mxCell id="jEnM1dzhKXRd6MNSODCM-7" value="đúng" style="edgeLabel;html=1;align=center;verticalAlign=middle;resizable=0;points=[];" vertex="1" connectable="0" parent="jEnM1dzhKXRd6MNSODCM-6">
          <mxGeometry x="-0.1333" y="1" relative="1" as="geometry">
            <mxPoint as="offset" />
          </mxGeometry>
        </mxCell>
        <mxCell id="jEnM1dzhKXRd6MNSODCM-8" value="n/2==0" style="rhombus;whiteSpace=wrap;html=1;strokeWidth=2;" vertex="1" parent="WIyWlLk6GJQsqaUBKTNV-1">
          <mxGeometry x="380" y="280" width="80" height="80" as="geometry" />
        </mxCell>
        <mxCell id="jEnM1dzhKXRd6MNSODCM-9" value="" style="edgeStyle=orthogonalEdgeStyle;rounded=0;orthogonalLoop=1;jettySize=auto;html=1;" edge="1" parent="WIyWlLk6GJQsqaUBKTNV-1" target="jEnM1dzhKXRd6MNSODCM-13">
          <mxGeometry relative="1" as="geometry">
            <mxPoint x="600" y="350" as="sourcePoint" />
            <mxPoint x="580" y="570" as="targetPoint" />
            <Array as="points">
              <mxPoint x="600" y="351" />
              <mxPoint x="580" y="351" />
              <mxPoint x="580" y="500" />
              <mxPoint x="581" y="500" />
              <mxPoint x="581" y="510" />
            </Array>
          </mxGeometry>
        </mxCell>
        <mxCell id="jEnM1dzhKXRd6MNSODCM-10" value="n là số lẻ" style="whiteSpace=wrap;html=1;strokeWidth=2;" vertex="1" parent="WIyWlLk6GJQsqaUBKTNV-1">
          <mxGeometry x="520" y="290" width="120" height="60" as="geometry" />
        </mxCell>
        <mxCell id="jEnM1dzhKXRd6MNSODCM-11" value="" style="edgeStyle=orthogonalEdgeStyle;rounded=0;orthogonalLoop=1;jettySize=auto;html=1;entryX=0.04;entryY=0.58;entryDx=0;entryDy=0;entryPerimeter=0;" edge="1" parent="WIyWlLk6GJQsqaUBKTNV-1" target="jEnM1dzhKXRd6MNSODCM-13">
          <mxGeometry relative="1" as="geometry">
            <mxPoint x="250" y="350" as="sourcePoint" />
            <mxPoint x="360" y="510" as="targetPoint" />
            <Array as="points">
              <mxPoint x="250" y="480" />
              <mxPoint x="393" y="480" />
            </Array>
          </mxGeometry>
        </mxCell>
        <mxCell id="jEnM1dzhKXRd6MNSODCM-12" value="n là số chẵn" style="whiteSpace=wrap;html=1;strokeWidth=2;" vertex="1" parent="WIyWlLk6GJQsqaUBKTNV-1">
          <mxGeometry x="200" y="290" width="120" height="60" as="geometry" />
        </mxCell>
        <mxCell id="jEnM1dzhKXRd6MNSODCM-13" value="kết thúc" style="ellipse;whiteSpace=wrap;html=1;strokeWidth=2;" vertex="1" parent="WIyWlLk6GJQsqaUBKTNV-1">
          <mxGeometry x="390" y="480" width="80" height="60" as="geometry" />
        </mxCell>
      </root>
    </mxGraphModel>
  </diagram>
</mxfile>
